<svg width="567" height="381" viewBox="0 0 567 381" fill="none" xmlns="http://www.w3.org/2000/svg">
<g clip-path="url(#clip0_15600_22372)">
<path d="M575.04 -6.45996H-7.69043V386.59H575.04V-6.45996Z" fill="url(#paint0_linear_15600_22372)"/>
<g filter="url(#filter0_d_15600_22372)">
<path d="M72.7516 13.6342L-45.7061 -8.62012L-67.9604 109.838L50.4973 132.092L72.7516 13.6342Z" fill="#1B2334"/>
<path d="M72.7516 13.6342L-45.7061 -8.62012L-67.9604 109.838L50.4973 132.092L72.7516 13.6342Z" fill="url(#paint1_linear_15600_22372)"/>
</g>
<g filter="url(#filter1_d_15600_22372)">
<path d="M616.62 121.034L515.717 138.771L533.454 239.674L634.357 221.937L616.62 121.034Z" fill="#151C2A"/>
<path d="M616.62 121.034L515.717 138.771L533.454 239.674L634.357 221.937L616.62 121.034Z" fill="url(#paint2_linear_15600_22372)"/>
</g>
<g filter="url(#filter2_d_15600_22372)">
<path d="M583.89 131.77L472.44 70.3001C471.51 69.7001 470.38 69.2701 468.72 69.6601C467.52 69.9401 466.49 70.6101 466.15 71.6201C465.66 73.1001 466.48 74.7401 468.04 75.7001L578.13 135.83C578.13 135.83 578.2 135.87 578.23 135.89C579.22 136.44 580.03 136.91 580.82 137.28C582.85 138.23 585.15 137.7 585.81 136.03C586.41 134.5 585.54 132.75 583.89 131.78V131.77Z" fill="url(#paint3_linear_15600_22372)"/>
</g>
<path d="M378.65 -38.6699H292.54V52.2401H378.65V-38.6699Z" fill="url(#paint4_linear_15600_22372)"/>
<path d="M378.65 -38.6699H292.54V52.2401H378.65V-38.6699Z" fill="url(#paint5_linear_15600_22372)"/>
<g filter="url(#filter3_d_15600_22372)">
<path d="M62.7886 288.228L-52.3828 278.638L-62.8651 404.522L52.3063 414.112L62.7886 288.228Z" fill="url(#paint6_linear_15600_22372)"/>
<path d="M62.7886 288.228L-52.3828 278.638L-62.8651 404.522L52.3063 414.112L62.7886 288.228Z" fill="url(#paint7_linear_15600_22372)"/>
</g>
<path d="M39.7399 309.47L-29.7601 303.69C-34.5701 303.29 -38.7901 306.86 -39.1901 311.67L-42.9401 356.73C-43.3401 361.54 -39.7701 365.76 -34.9601 366.16L-29.5801 366.61L-28.6701 355.72L15.5399 359.4L14.6299 370.29L14.1299 376.25L-27.7201 372.77L-28.3001 379.76L13.5499 383.24L25.8599 397.71L28.0499 371.41L34.5499 371.95C39.3599 372.35 43.5799 368.78 43.9799 363.97L47.7299 318.91C48.1299 314.1 44.5599 309.88 39.7499 309.48L39.7399 309.47ZM-9.16012 348.64C-16.9901 347.99 -22.8101 341.11 -22.1601 333.28C-21.5101 325.45 -14.6301 319.63 -6.80012 320.28C1.02988 320.93 6.84988 327.81 6.19988 335.64C5.54988 343.47 -1.33012 349.29 -9.16012 348.64ZM31.4599 350.24L9.47988 348.41L10.0599 341.46L32.0399 343.29L31.4599 350.24ZM32.7699 334.54L10.7899 332.71L11.5099 324L33.4899 325.83L32.7699 334.54Z" fill="#31435F"/>
<g filter="url(#filter4_d_15600_22372)">
<path d="M474.776 57.3616L406.552 51.6807L399.322 138.5L467.546 144.181L474.776 57.3616Z" fill="#151C2A"/>
<path d="M474.776 57.3616L406.552 51.6807L399.322 138.5L467.546 144.181L474.776 57.3616Z" fill="url(#paint8_linear_15600_22372)"/>
</g>
<path d="M461.351 115.561L421.519 112.244L421.115 117.087L460.947 120.404L461.351 115.561Z" fill="#31435F"/>
<path d="M450.109 124.334L414.213 121.345L413.715 127.324L449.611 130.313L450.109 124.334Z" fill="#31435F"/>
<path d="M419.12 62.5L415.68 103.91L421.19 104.37C421.99 94.78 428.83 87.44 436.73 87.38C432.37 86.44 429.28 82.4 429.66 77.84C430.07 72.89 434.42 69.2 439.38 69.62C444.33 70.03 448.02 74.38 447.6 79.34C447.22 83.9 443.5 87.37 439.05 87.58C446.84 88.94 452.37 97.31 451.57 106.9L457.08 107.36L460.52 65.95L419.11 62.51L419.12 62.5Z" fill="#31435F"/>
<g filter="url(#filter5_d_15600_22372)">
<path d="M468.523 184.687L360.515 197.107L374.663 320.137L482.671 307.716L468.523 184.687Z" fill="url(#paint9_linear_15600_22372)"/>
</g>
<path d="M301.91 42.2599L262.43 94.4699C259.85 97.8799 260.72 102.76 264.31 105.07C267.9 107.39 272.7 106.17 274.75 102.41L306.08 44.9399C307.55 42.2399 303.77 39.7999 301.92 42.2499L301.91 42.2599Z" fill="url(#paint10_linear_15600_22372)"/>
<path d="M471.5 334.85L432.76 340.79C429.46 341.62 426.27 339.12 426.28 335.72L426.38 292.44L478.92 284.28L478.49 325.92C478.49 330.15 475.6 333.83 471.5 334.86V334.85Z" fill="url(#paint11_linear_15600_22372)"/>
<path d="M424.42 340.05L423.91 335.68L471.79 327.45C471.79 327.45 473.64 336.01 475.84 332.36C475.84 332.36 475.44 333.59 472.17 334.68C468.91 335.77 432.75 340.79 432.75 340.79C432.75 340.79 424.81 343.21 424.42 340.05Z" fill="url(#paint12_linear_15600_22372)"/>
<path opacity="0.53" d="M459.66 283.75L481.06 298.15L480.7 295.26L483.51 294.5L483.03 292.08L485.69 291.26L464.29 276.87L465.5 280.44L461.97 280.31L463.78 283.52L459.66 283.75Z" fill="url(#paint13_linear_15600_22372)"/>
<path opacity="0.53" d="M430.51 308.591L444.91 287.191L442.02 287.541L441.26 284.731L438.84 285.221L438.03 282.561L423.63 303.961L427.21 302.741L427.07 306.271L430.28 304.471L430.51 308.591Z" fill="url(#paint14_linear_15600_22372)"/>
<path d="M454.17 307.73C454.16 306.58 453.32 306.14 452.36 306.15C451.27 306.16 450.58 306.75 449.75 307.53L446.71 304.82C448.19 303.01 450.25 301.77 452.68 301.74C456.39 301.69 459.35 303.26 459.4 307.29C459.45 311.13 454.79 312.21 455.15 315.72L450.35 315.78C449.66 311.63 454.18 309.78 454.15 307.74L454.17 307.73ZM452.75 317.28C454.6 317.26 455.96 318.71 455.99 320.57C456.01 322.42 454.69 323.91 452.83 323.93C450.97 323.95 449.61 322.5 449.59 320.64C449.57 318.79 450.89 317.3 452.75 317.27V317.28Z" fill="#2DABE2"/>
<path d="M1.86043 354.85L40.6004 360.79C43.9004 361.62 47.0904 359.12 47.0804 355.72L46.9804 312.44L-5.55957 304.28L-5.12957 345.92C-5.12957 350.15 -2.23957 353.83 1.86043 354.86V354.85Z" fill="url(#paint15_linear_15600_22372)"/>
<path d="M48.9405 360.05L49.4505 355.68L1.57051 347.45C1.57051 347.45 -0.279492 356.01 -2.47949 352.36C-2.47949 352.36 -2.07949 353.59 1.19051 354.68C4.45051 355.77 40.6105 360.79 40.6105 360.79C40.6105 360.79 48.5505 363.21 48.9405 360.05Z" fill="url(#paint16_linear_15600_22372)"/>
<path opacity="0.53" d="M13.6999 303.75L-7.70008 318.14L-7.34008 315.26L-10.1501 314.5L-9.66008 312.08L-12.3301 311.26L9.06992 296.87L7.85992 300.44L11.3899 300.31L9.58992 303.52L13.6999 303.75Z" fill="url(#paint17_linear_15600_22372)"/>
<path opacity="0.53" d="M42.8502 328.59L28.4502 307.19L31.3402 307.54L32.1002 304.73L34.5202 305.22L35.3402 302.56L49.7302 323.96L46.1502 322.74L46.2902 326.27L43.0802 324.47L42.8502 328.59Z" fill="url(#paint18_linear_15600_22372)"/>
<path d="M20.8496 326.94C20.8396 325.79 19.9996 325.35 19.0396 325.36C17.9496 325.37 17.2596 325.96 16.4296 326.74L13.3896 324.03C14.8696 322.22 16.9296 320.98 19.3596 320.95C23.0696 320.9 26.0296 322.47 26.0796 326.5C26.1296 330.34 21.4696 331.42 21.8296 334.93L17.0296 334.99C16.3396 330.84 20.8596 328.99 20.8296 326.95L20.8496 326.94ZM19.4396 336.48C21.2896 336.46 22.6496 337.91 22.6796 339.77C22.6996 341.62 21.3796 343.11 19.5196 343.13C17.6596 343.15 16.2996 341.7 16.2796 339.84C16.2596 337.99 17.5796 336.5 19.4396 336.47V336.48Z" fill="#2DABE2"/>
<path d="M412.01 135.95L275.38 150.3C271.72 150.68 269.19 153.97 269.75 157.61C270.47 162.27 274.94 165.38 279.56 164.43L412.19 137.18C412.96 137.02 412.78 135.87 412 135.95H412.01Z" fill="url(#paint19_linear_15600_22372)"/>
<path d="M48.5705 294.74L110.6 264.82C113.82 263.27 115.04 259.31 113.25 256.22C111.46 253.13 107.43 252.2 104.47 254.21L47.5405 292.97C46.4905 293.68 47.4205 295.29 48.5605 294.74H48.5705Z" fill="url(#paint20_linear_15600_22372)"/>
<g filter="url(#filter6_d_15600_22372)">
<path d="M390.98 298.57L276.35 353.88C275.32 354.29 274.32 354.97 273.67 356.54C273.2 357.68 273.15 358.91 273.78 359.77C274.7 361.03 276.52 361.31 278.2 360.59L390.95 305.61C390.95 305.61 391.02 305.58 391.06 305.56C392.08 305.07 392.94 304.68 393.69 304.25C395.64 303.15 396.54 300.96 395.55 299.46C394.65 298.09 392.72 297.78 390.97 298.56L390.98 298.57Z" fill="url(#paint21_linear_15600_22372)"/>
</g>
<g filter="url(#filter7_d_15600_22372)">
<path d="M316.223 326.891L214.017 338.645L227.405 455.067L329.611 443.314L316.223 326.891Z" fill="url(#paint22_linear_15600_22372)"/>
</g>
<g filter="url(#filter8_d_15600_22372)">
<path d="M277.902 94.7574L88.6094 116.525L108.636 290.678L297.929 268.91L277.902 94.7574Z" fill="url(#paint23_linear_15600_22372)"/>
</g>
<g filter="url(#filter9_d_15600_22372)">
<path d="M277.902 94.7574L88.6094 116.525L108.636 290.678L297.929 268.91L277.902 94.7574Z" fill="url(#paint24_linear_15600_22372)"/>
</g>
<path d="M307.11 406.13L279.3 368.63C274.97 362.79 265.94 363.83 263.04 370.5L244.47 413.33C241.58 420 246.99 427.3 254.22 426.47L300.6 421.13C307.82 420.3 311.44 411.96 307.11 406.12V406.13ZM277.2 417.97C272.88 418.83 272.02 405.53 272.02 405.53L279.42 404.68C279.42 404.68 281.52 417.11 277.2 417.97ZM279.07 402.3L271.71 403.15C271.71 403.15 267.63 378.15 272.65 377.45C277.67 376.75 279.07 402.3 279.07 402.3Z" fill="#31435F"/>
<path d="M363.95 20.53L342.95 -15.85C339.68 -21.52 331.5 -21.52 328.23 -15.85L307.23 20.53C303.96 26.2 308.05 33.28 314.59 33.28H356.6C363.14 33.28 367.23 26.2 363.96 20.53H363.95ZM336 28.04C332.05 28.36 332.65 16.39 332.65 16.39H339.35C339.35 16.39 339.95 27.72 336 28.04ZM339.28 14.22H332.61C332.61 14.22 331.54 -8.55004 336.09 -8.66004C340.65 -8.77004 339.27 14.22 339.27 14.22H339.28Z" fill="#31435F"/>
<path d="M407.62 263C406.02 262.27 404.8 260.82 404.4 259.02L399.96 262.47L391.92 266.29C390.87 265.63 389.51 265.5 388.3 266.06C386.41 266.95 385.6 269.2 386.48 271.09C387.37 272.98 389.62 273.79 391.51 272.91C391.64 272.85 391.77 272.78 391.89 272.7C391 273.78 390.76 275.32 391.39 276.67C392.27 278.54 394.5 279.35 396.37 278.47C398.24 277.59 399.05 275.36 398.17 273.49L402.47 266.91L407.62 263.01V263Z" fill="#31435F"/>
<path d="M427.9 250.679L425.39 249.519L440.43 238.119L450.19 237.069C452.24 236.829 453.72 234.979 453.48 232.919C453.24 230.859 451.39 229.389 449.33 229.629C449.19 229.649 449.05 229.669 448.91 229.699C450.11 228.949 450.84 227.559 450.67 226.059C450.43 223.979 448.55 222.489 446.48 222.729C445.09 222.889 443.96 223.789 443.44 224.989L438.08 232.799L419.86 246.969L397.39 236.609L390.4 230.219C389.62 229.169 388.32 228.539 386.92 228.709C384.84 228.949 383.35 230.829 383.59 232.899C383.76 234.399 384.79 235.589 386.13 236.049C385.99 236.049 385.85 236.049 385.71 236.069C383.66 236.309 382.18 238.159 382.42 240.219C382.66 242.279 384.51 243.749 386.57 243.509L396.31 242.309L415.08 250.679L412.78 252.469C414.67 253.049 416.45 254.189 417.21 255.699L420.59 253.139L424.21 254.749C424.67 253.119 426.17 251.629 427.89 250.659L427.9 250.679Z" fill="#31435F"/>
<path d="M453.45 257.699C452.14 257.419 450.85 257.859 449.97 258.739L441.27 256.849L437.41 255.069C437.49 256.909 436.67 258.619 435.33 259.729L439.84 261.739L445.52 267.179C445.09 269.199 446.38 271.189 448.4 271.619C450.42 272.049 452.41 270.759 452.84 268.739C453.15 267.279 452.56 265.839 451.45 264.989C451.59 265.039 451.72 265.079 451.87 265.109C453.91 265.549 455.92 264.239 456.36 262.199C456.8 260.159 455.49 258.149 453.45 257.709V257.699Z" fill="#31435F"/>
<path d="M417.1 222.56C404.52 224.01 395.49 235.38 396.94 247.97C398.39 260.55 411.12 281.4 423.71 279.95C436.29 278.5 443.96 255.31 442.52 242.73C441.07 230.15 429.7 221.12 417.11 222.57L417.1 222.56ZM410.66 263.49C407.51 263.85 404.67 261.59 404.31 258.45C403.95 255.3 406.21 252.46 409.35 252.1C412.49 251.74 417.24 253.78 417.6 256.92C417.96 260.06 413.81 263.13 410.66 263.49ZM425.38 270.47L424.28 269.54C422.85 268.33 420.69 268.57 419.58 270.08L418.72 271.24C417.68 271.36 416.91 270.31 417.32 269.36L419.99 263.21C420.4 262.25 421.7 262.1 422.32 262.94L426.31 268.32C426.93 269.16 426.41 270.35 425.38 270.47ZM432.34 260.99C429.19 261.35 424.45 259.31 424.09 256.17C423.73 253.03 427.88 249.96 431.03 249.6C434.18 249.24 437.02 251.5 437.38 254.64C437.74 257.78 435.48 260.63 432.34 260.99Z" fill="#31435F"/>
<path d="M38.5797 57.1304L38.5297 57.1704V57.0604L24.4997 57.7804C23.4297 54.5404 21.7197 51.3604 19.4097 48.4504L25.3597 42.7504L36.4797 45.1704L37.7497 39.3404L23.6197 36.2604V36.3204L23.5297 36.2404L15.3097 44.1204C15.2597 44.0804 15.2097 44.0304 15.1597 43.9904C12.1497 41.3704 9.20969 39.7704 6.35969 38.9804L6.03969 24.7504H5.92969L5.95969 24.7004L-6.22031 16.9004L-9.44031 21.9204L0.119686 28.0704L0.359688 38.5104C-5.24031 39.1604 -10.3703 42.8304 -14.8103 47.9504C-18.3503 52.0304 -20.8703 56.3404 -21.6503 60.7404L-32.1503 60.5204L-38.3003 50.9504L-43.3203 54.1704L-35.5103 66.3404L-35.4603 66.3104V66.4204L-21.5703 66.7204C-20.9203 69.7604 -19.2903 72.8104 -16.4403 75.8104L-24.0603 83.7904L-23.9803 83.8704H-24.0403L-20.9403 98.0104L-15.1103 96.7304L-17.5503 85.6204L-11.9303 79.7404C-8.95031 81.9004 -5.75031 83.4704 -2.51031 84.4504L-3.23031 98.7804H-3.12031L-3.16031 98.8404L8.41969 107.5L11.9997 102.72L2.88969 95.9004L3.40969 85.5704C10.2997 86.1104 16.8297 83.9204 21.1597 78.9304C24.7897 74.7504 26.2497 69.3204 25.7497 63.7004L35.6697 63.1904L42.4997 72.2904L47.2697 68.7104L38.5897 57.1404L38.5797 57.1304Z" fill="#2A3952"/>
<path d="M573.74 158.9C579.39 158 583.69 156.09 583.1 152.39C582.51 148.69 577.45 146.42 571.8 147.32C566.15 148.22 562.05 151.96 562.64 155.66C563.23 159.36 568.09 159.81 573.74 158.91V158.9Z" fill="#31435F"/>
<path d="M607.59 202.54H607.53L607.6 202.45L596.38 194C597.64 190.83 598.37 187.29 598.46 183.58L606.68 183.03L613.65 192.02L618.37 188.37L609.51 176.94L609.46 176.98V176.87L598.09 177.63C598.08 177.56 598.07 177.5 598.06 177.43C597.43 173.49 596.21 170.37 594.53 167.94L603.42 156.83L603.33 156.76L603.39 156.74L599.06 142.94L593.37 144.73L596.78 155.59L590.26 163.74C585.55 160.64 579.26 160.16 572.57 161.23C567.24 162.08 562.53 163.77 559.11 166.64L551.2 159.72L552.63 148.43L546.71 147.68L544.89 162.03H544.95L544.87 162.12L555.33 171.27C553.87 174.02 553.17 177.4 553.42 181.53L542.45 182.75V182.86L542.41 182.83L535.71 195.65L541 198.41L546.27 188.32L554.35 187.42C555.25 190.99 556.69 194.25 558.55 197.08L548.8 207.6L548.88 207.68H548.82L552.13 221.77L557.94 220.4L555.33 209.32L562.36 201.74C567.29 206.58 573.7 209.09 580.23 208.05C585.7 207.18 590.31 203.95 593.53 199.32L601.46 205.3L600.85 216.66L606.81 216.98L607.58 202.54H607.59Z" fill="#31435F"/>
<path d="M222.98 200.59L203.74 225.75L217.29 222.94C217.78 235.52 208.52 246.55 195.81 248.01C182.48 249.54 170.42 239.98 168.89 226.64C167.36 213.31 176.92 201.25 190.26 199.72C191.13 199.62 193.24 199.43 194.1 199.42L193.66 195.58L193.3 192.43L189.79 161.91C195.85 159.99 198.67 154.14 197.91 147.59C197.05 140.15 190.33 134.82 182.9 135.67C175.46 136.53 170.13 143.25 170.98 150.68C171.73 157.23 177.04 162.15 183.38 162.64L186.89 193.16C171.07 196.31 160.05 211.13 161.93 227.44C163.91 244.62 179.44 256.95 196.62 254.97C213.4 253.04 225.54 238.18 224.26 221.48L222.98 200.57V200.59ZM176.71 150.03C176.22 145.76 179.28 141.9 183.55 141.41C187.82 140.92 191.68 143.98 192.17 148.25C192.66 152.52 189.6 156.38 185.33 156.87C181.06 157.36 177.2 154.3 176.71 150.03Z" fill="#7894C1"/>
<path d="M265.207 121.452L213.604 119.027C210.84 118.897 208.494 121.033 208.364 123.796L206.11 171.774C205.98 174.537 208.116 176.883 210.88 177.013L262.483 179.438C265.247 179.568 267.592 177.432 267.722 174.668L269.977 126.691C270.106 123.927 267.971 121.581 265.207 121.452Z" fill="#151C2B"/>
<path d="M259.81 158.3L245.52 130.61C243.29 126.3 237.23 126.01 234.61 130.1L217.78 156.32C215.16 160.4 217.94 165.8 222.79 166.02L253.92 167.48C258.77 167.71 262.05 162.6 259.82 158.29L259.81 158.3ZM238.83 162.88C235.9 162.98 236.75 154.13 236.75 154.13L241.71 154.36C241.71 154.36 241.76 162.78 238.82 162.88H238.83ZM241.75 152.76L236.81 152.53C236.81 152.53 236.81 135.62 240.19 135.7C243.57 135.78 241.75 152.76 241.75 152.76Z" fill="#BF3253"/>
<path opacity="0.53" d="M227.44 115.77L200.9 140.3L200.78 136.23L196.72 135.77L196.88 132.33L193.02 131.76L219.55 107.24L218.64 112.45L223.49 111.51L221.69 116.34L227.44 115.77Z" fill="url(#paint25_linear_15600_22372)"/>
<path opacity="0.53" d="M273.12 143.9L248.6 117.36L252.67 117.24L253.12 113.18L256.57 113.34L257.13 109.48L281.65 136.01L276.44 135.1L277.39 139.95L272.55 138.15L273.12 143.9Z" fill="url(#paint26_linear_15600_22372)"/>
</g>
<defs>
<filter id="filter0_d_15600_22372" x="-77.96" y="-18.6201" width="168.712" height="168.712" filterUnits="userSpaceOnUse" color-interpolation-filters="sRGB">
<feFlood flood-opacity="0" result="BackgroundImageFix"/>
<feColorMatrix in="SourceAlpha" type="matrix" values="0 0 0 0 0 0 0 0 0 0 0 0 0 0 0 0 0 0 127 0" result="hardAlpha"/>
<feOffset dx="4" dy="4"/>
<feGaussianBlur stdDeviation="7"/>
<feColorMatrix type="matrix" values="0 0 0 0 0 0 0 0 0 0 0 0 0 0 0 0 0 0 0.85 0"/>
<feBlend mode="normal" in2="BackgroundImageFix" result="effect1_dropShadow_15600_22372"/>
<feBlend mode="normal" in="SourceGraphic" in2="effect1_dropShadow_15600_22372" result="shape"/>
</filter>
<filter id="filter1_d_15600_22372" x="505.717" y="111.034" width="146.641" height="146.641" filterUnits="userSpaceOnUse" color-interpolation-filters="sRGB">
<feFlood flood-opacity="0" result="BackgroundImageFix"/>
<feColorMatrix in="SourceAlpha" type="matrix" values="0 0 0 0 0 0 0 0 0 0 0 0 0 0 0 0 0 0 127 0" result="hardAlpha"/>
<feOffset dx="4" dy="4"/>
<feGaussianBlur stdDeviation="7"/>
<feColorMatrix type="matrix" values="0 0 0 0 0 0 0 0 0 0 0 0 0 0 0 0 0 0 0.85 0"/>
<feBlend mode="normal" in2="BackgroundImageFix" result="effect1_dropShadow_15600_22372"/>
<feBlend mode="normal" in="SourceGraphic" in2="effect1_dropShadow_15600_22372" result="shape"/>
</filter>
<filter id="filter2_d_15600_22372" x="456.009" y="59.5107" width="147.991" height="96.2383" filterUnits="userSpaceOnUse" color-interpolation-filters="sRGB">
<feFlood flood-opacity="0" result="BackgroundImageFix"/>
<feColorMatrix in="SourceAlpha" type="matrix" values="0 0 0 0 0 0 0 0 0 0 0 0 0 0 0 0 0 0 127 0" result="hardAlpha"/>
<feOffset dx="4" dy="4"/>
<feGaussianBlur stdDeviation="7"/>
<feColorMatrix type="matrix" values="0 0 0 0 0 0 0 0 0 0 0 0 0 0 0 0 0 0 0.85 0"/>
<feBlend mode="normal" in2="BackgroundImageFix" result="effect1_dropShadow_15600_22372"/>
<feBlend mode="normal" in="SourceGraphic" in2="effect1_dropShadow_15600_22372" result="shape"/>
</filter>
<filter id="filter3_d_15600_22372" x="-72.8652" y="268.638" width="153.654" height="163.475" filterUnits="userSpaceOnUse" color-interpolation-filters="sRGB">
<feFlood flood-opacity="0" result="BackgroundImageFix"/>
<feColorMatrix in="SourceAlpha" type="matrix" values="0 0 0 0 0 0 0 0 0 0 0 0 0 0 0 0 0 0 127 0" result="hardAlpha"/>
<feOffset dx="4" dy="4"/>
<feGaussianBlur stdDeviation="7"/>
<feColorMatrix type="matrix" values="0 0 0 0 0 0 0 0 0 0 0 0 0 0 0 0 0 0 0.85 0"/>
<feBlend mode="normal" in2="BackgroundImageFix" result="effect1_dropShadow_15600_22372"/>
<feBlend mode="normal" in="SourceGraphic" in2="effect1_dropShadow_15600_22372" result="shape"/>
</filter>
<filter id="filter4_d_15600_22372" x="389.322" y="41.6807" width="103.453" height="120.5" filterUnits="userSpaceOnUse" color-interpolation-filters="sRGB">
<feFlood flood-opacity="0" result="BackgroundImageFix"/>
<feColorMatrix in="SourceAlpha" type="matrix" values="0 0 0 0 0 0 0 0 0 0 0 0 0 0 0 0 0 0 127 0" result="hardAlpha"/>
<feOffset dx="4" dy="4"/>
<feGaussianBlur stdDeviation="7"/>
<feColorMatrix type="matrix" values="0 0 0 0 0 0 0 0 0 0 0 0 0 0 0 0 0 0 0.85 0"/>
<feBlend mode="normal" in2="BackgroundImageFix" result="effect1_dropShadow_15600_22372"/>
<feBlend mode="normal" in="SourceGraphic" in2="effect1_dropShadow_15600_22372" result="shape"/>
</filter>
<filter id="filter5_d_15600_22372" x="350.515" y="174.687" width="150.156" height="163.45" filterUnits="userSpaceOnUse" color-interpolation-filters="sRGB">
<feFlood flood-opacity="0" result="BackgroundImageFix"/>
<feColorMatrix in="SourceAlpha" type="matrix" values="0 0 0 0 0 0 0 0 0 0 0 0 0 0 0 0 0 0 127 0" result="hardAlpha"/>
<feOffset dx="4" dy="4"/>
<feGaussianBlur stdDeviation="7"/>
<feColorMatrix type="matrix" values="0 0 0 0 0 0 0 0 0 0 0 0 0 0 0 0 0 0 0.85 0"/>
<feBlend mode="normal" in2="BackgroundImageFix" result="effect1_dropShadow_15600_22372"/>
<feBlend mode="normal" in="SourceGraphic" in2="effect1_dropShadow_15600_22372" result="shape"/>
</filter>
<filter id="filter6_d_15600_22372" x="263.312" y="288.14" width="150.644" height="90.8398" filterUnits="userSpaceOnUse" color-interpolation-filters="sRGB">
<feFlood flood-opacity="0" result="BackgroundImageFix"/>
<feColorMatrix in="SourceAlpha" type="matrix" values="0 0 0 0 0 0 0 0 0 0 0 0 0 0 0 0 0 0 127 0" result="hardAlpha"/>
<feOffset dx="4" dy="4"/>
<feGaussianBlur stdDeviation="7"/>
<feColorMatrix type="matrix" values="0 0 0 0 0 0 0 0 0 0 0 0 0 0 0 0 0 0 0.85 0"/>
<feBlend mode="normal" in2="BackgroundImageFix" result="effect1_dropShadow_15600_22372"/>
<feBlend mode="normal" in="SourceGraphic" in2="effect1_dropShadow_15600_22372" result="shape"/>
</filter>
<filter id="filter7_d_15600_22372" x="204.017" y="316.892" width="143.595" height="156.176" filterUnits="userSpaceOnUse" color-interpolation-filters="sRGB">
<feFlood flood-opacity="0" result="BackgroundImageFix"/>
<feColorMatrix in="SourceAlpha" type="matrix" values="0 0 0 0 0 0 0 0 0 0 0 0 0 0 0 0 0 0 127 0" result="hardAlpha"/>
<feOffset dx="4" dy="4"/>
<feGaussianBlur stdDeviation="7"/>
<feColorMatrix type="matrix" values="0 0 0 0 0 0 0 0 0 0 0 0 0 0 0 0 0 0 0.85 0"/>
<feBlend mode="normal" in2="BackgroundImageFix" result="effect1_dropShadow_15600_22372"/>
<feBlend mode="normal" in="SourceGraphic" in2="effect1_dropShadow_15600_22372" result="shape"/>
</filter>
<filter id="filter8_d_15600_22372" x="58.6094" y="64.7578" width="269.319" height="255.92" filterUnits="userSpaceOnUse" color-interpolation-filters="sRGB">
<feFlood flood-opacity="0" result="BackgroundImageFix"/>
<feColorMatrix in="SourceAlpha" type="matrix" values="0 0 0 0 0 0 0 0 0 0 0 0 0 0 0 0 0 0 127 0" result="hardAlpha"/>
<feOffset/>
<feGaussianBlur stdDeviation="15"/>
<feColorMatrix type="matrix" values="0 0 0 0 0.921569 0 0 0 0 0 0 0 0 0 0.215686 0 0 0 1 0"/>
<feBlend mode="normal" in2="BackgroundImageFix" result="effect1_dropShadow_15600_22372"/>
<feBlend mode="normal" in="SourceGraphic" in2="effect1_dropShadow_15600_22372" result="shape"/>
</filter>
<filter id="filter9_d_15600_22372" x="-11.3906" y="-5.24219" width="409.319" height="395.92" filterUnits="userSpaceOnUse" color-interpolation-filters="sRGB">
<feFlood flood-opacity="0" result="BackgroundImageFix"/>
<feColorMatrix in="SourceAlpha" type="matrix" values="0 0 0 0 0 0 0 0 0 0 0 0 0 0 0 0 0 0 127 0" result="hardAlpha"/>
<feOffset/>
<feGaussianBlur stdDeviation="50"/>
<feColorMatrix type="matrix" values="0 0 0 0 0.921569 0 0 0 0 0 0 0 0 0 0.215686 0 0 0 1 0"/>
<feBlend mode="normal" in2="BackgroundImageFix" result="effect1_dropShadow_15600_22372"/>
<feBlend mode="normal" in="SourceGraphic" in2="effect1_dropShadow_15600_22372" result="shape"/>
</filter>
<linearGradient id="paint0_linear_15600_22372" x1="606.54" y1="188" x2="28" y2="175" gradientUnits="userSpaceOnUse">
<stop stop-color="#1C3459"/>
<stop offset="0.413462" stop-color="#1C2638"/>
<stop offset="1" stop-color="#101622"/>
</linearGradient>
<linearGradient id="paint1_linear_15600_22372" x1="-56.8241" y1="50.6203" x2="61.6227" y2="72.8726" gradientUnits="userSpaceOnUse">
<stop stop-color="#303C55"/>
<stop offset="0.486915" stop-color="#20293C"/>
<stop offset="1" stop-color="#101622"/>
</linearGradient>
<linearGradient id="paint2_linear_15600_22372" x1="524.596" y1="189.229" x2="625.49" y2="171.494" gradientUnits="userSpaceOnUse">
<stop stop-color="#303C55"/>
<stop offset="0.486915" stop-color="#20293C"/>
<stop offset="1" stop-color="#101622"/>
</linearGradient>
<linearGradient id="paint3_linear_15600_22372" x1="529.497" y1="98.1971" x2="520.968" y2="111.787" gradientUnits="userSpaceOnUse">
<stop stop-color="#070C14"/>
<stop offset="0.15" stop-color="#070E17"/>
<stop offset="0.29" stop-color="#091723"/>
<stop offset="0.43" stop-color="#0D2636"/>
<stop offset="0.56" stop-color="#123B51"/>
<stop offset="0.69" stop-color="#185573"/>
<stop offset="0.83" stop-color="#20769D"/>
<stop offset="0.96" stop-color="#299CCF"/>
<stop offset="1" stop-color="#2DABE2"/>
</linearGradient>
<linearGradient id="paint4_linear_15600_22372" x1="292.54" y1="6.79008" x2="378.64" y2="6.79008" gradientUnits="userSpaceOnUse">
<stop stop-color="#1E6486"/>
<stop offset="0.12" stop-color="#1A5875"/>
<stop offset="0.52" stop-color="#0E3344"/>
<stop offset="0.83" stop-color="#071C25"/>
<stop offset="1" stop-color="#05141A"/>
</linearGradient>
<linearGradient id="paint5_linear_15600_22372" x1="292.548" y1="6.79242" x2="378.65" y2="6.79242" gradientUnits="userSpaceOnUse">
<stop stop-color="#303C55"/>
<stop offset="0.486915" stop-color="#20293C"/>
<stop offset="1" stop-color="#101622"/>
</linearGradient>
<linearGradient id="paint6_linear_15600_22372" x1="-57.6231" y1="341.57" x2="57.5483" y2="351.16" gradientUnits="userSpaceOnUse">
<stop stop-color="#1E6486"/>
<stop offset="0.12" stop-color="#1A5875"/>
<stop offset="0.52" stop-color="#0E3344"/>
<stop offset="0.83" stop-color="#071C25"/>
<stop offset="1" stop-color="#05141A"/>
</linearGradient>
<linearGradient id="paint7_linear_15600_22372" x1="-57.6142" y1="341.591" x2="57.5466" y2="351.18" gradientUnits="userSpaceOnUse">
<stop stop-color="#303C55"/>
<stop offset="0.486915" stop-color="#20293C"/>
<stop offset="1" stop-color="#101622"/>
</linearGradient>
<linearGradient id="paint8_linear_15600_22372" x1="402.943" y1="95.098" x2="471.16" y2="100.778" gradientUnits="userSpaceOnUse">
<stop stop-color="#303C55"/>
<stop offset="0.486915" stop-color="#20293C"/>
<stop offset="1" stop-color="#101622"/>
</linearGradient>
<linearGradient id="paint9_linear_15600_22372" x1="367.6" y1="258.631" x2="475.598" y2="246.211" gradientUnits="userSpaceOnUse">
<stop stop-color="#303C55"/>
<stop offset="0.486915" stop-color="#20293C"/>
<stop offset="1" stop-color="#101622"/>
</linearGradient>
<linearGradient id="paint10_linear_15600_22372" x1="278.59" y1="70.1399" x2="290.86" y2="76.5799" gradientUnits="userSpaceOnUse">
<stop stop-color="#070C14"/>
<stop offset="0.15" stop-color="#070E17"/>
<stop offset="0.29" stop-color="#091723"/>
<stop offset="0.43" stop-color="#0D2636"/>
<stop offset="0.56" stop-color="#123B51"/>
<stop offset="0.69" stop-color="#185573"/>
<stop offset="0.83" stop-color="#20769D"/>
<stop offset="0.96" stop-color="#299CCF"/>
<stop offset="1" stop-color="#2DABE2"/>
</linearGradient>
<linearGradient id="paint11_linear_15600_22372" x1="461.189" y1="343.147" x2="446.738" y2="288.108" gradientUnits="userSpaceOnUse">
<stop stop-color="#090910"/>
<stop offset="1" stop-color="#0B73A0"/>
</linearGradient>
<linearGradient id="paint12_linear_15600_22372" x1="451.556" y1="343.537" x2="448.652" y2="328.408" gradientUnits="userSpaceOnUse">
<stop stop-color="#102C3D"/>
<stop offset="0.16" stop-color="#102E40"/>
<stop offset="1" stop-color="#3C4765"/>
</linearGradient>
<linearGradient id="paint13_linear_15600_22372" x1="485.394" y1="286.664" x2="459.981" y2="288.37" gradientUnits="userSpaceOnUse">
<stop stop-color="#070C14"/>
<stop offset="0.15" stop-color="#070E17"/>
<stop offset="0.29" stop-color="#091723"/>
<stop offset="0.43" stop-color="#0D2636"/>
<stop offset="0.56" stop-color="#123B51"/>
<stop offset="0.69" stop-color="#185573"/>
<stop offset="0.83" stop-color="#20769D"/>
<stop offset="0.96" stop-color="#299CCF"/>
<stop offset="1" stop-color="#2DABE2"/>
</linearGradient>
<linearGradient id="paint14_linear_15600_22372" x1="433.432" y1="282.883" x2="435.138" y2="308.296" gradientUnits="userSpaceOnUse">
<stop stop-color="#070C14"/>
<stop offset="0.15" stop-color="#070E17"/>
<stop offset="0.29" stop-color="#091723"/>
<stop offset="0.43" stop-color="#0D2636"/>
<stop offset="0.56" stop-color="#123B51"/>
<stop offset="0.69" stop-color="#185573"/>
<stop offset="0.83" stop-color="#20769D"/>
<stop offset="0.96" stop-color="#299CCF"/>
<stop offset="1" stop-color="#2DABE2"/>
</linearGradient>
<linearGradient id="paint15_linear_15600_22372" x1="29.349" y1="363.147" x2="14.8984" y2="308.108" gradientUnits="userSpaceOnUse">
<stop stop-color="#090910"/>
<stop offset="1" stop-color="#0B73A0"/>
</linearGradient>
<linearGradient id="paint16_linear_15600_22372" x1="31.9582" y1="362.227" x2="30.9759" y2="347.524" gradientUnits="userSpaceOnUse">
<stop stop-color="#090910"/>
<stop offset="1" stop-color="#2C3E57"/>
</linearGradient>
<linearGradient id="paint17_linear_15600_22372" x1="-12.0265" y1="306.671" x2="13.3863" y2="308.377" gradientUnits="userSpaceOnUse">
<stop stop-color="#070C14"/>
<stop offset="0.15" stop-color="#070E17"/>
<stop offset="0.29" stop-color="#091723"/>
<stop offset="0.43" stop-color="#0D2636"/>
<stop offset="0.56" stop-color="#123B51"/>
<stop offset="0.69" stop-color="#185573"/>
<stop offset="0.83" stop-color="#20769D"/>
<stop offset="0.96" stop-color="#299CCF"/>
<stop offset="1" stop-color="#2DABE2"/>
</linearGradient>
<linearGradient id="paint18_linear_15600_22372" x1="39.9246" y1="302.889" x2="38.2189" y2="328.302" gradientUnits="userSpaceOnUse">
<stop stop-color="#070C14"/>
<stop offset="0.15" stop-color="#070E17"/>
<stop offset="0.29" stop-color="#091723"/>
<stop offset="0.43" stop-color="#0D2636"/>
<stop offset="0.56" stop-color="#123B51"/>
<stop offset="0.69" stop-color="#185573"/>
<stop offset="0.83" stop-color="#20769D"/>
<stop offset="0.96" stop-color="#299CCF"/>
<stop offset="1" stop-color="#2DABE2"/>
</linearGradient>
<linearGradient id="paint19_linear_15600_22372" x1="350.048" y1="140.448" x2="351.885" y2="150.556" gradientUnits="userSpaceOnUse">
<stop stop-color="#070C14"/>
<stop offset="0.15" stop-color="#070E17"/>
<stop offset="0.29" stop-color="#091723"/>
<stop offset="0.43" stop-color="#0D2636"/>
<stop offset="0.56" stop-color="#123B51"/>
<stop offset="0.69" stop-color="#185573"/>
<stop offset="0.83" stop-color="#20769D"/>
<stop offset="0.96" stop-color="#299CCF"/>
<stop offset="1" stop-color="#2DABE2"/>
</linearGradient>
<linearGradient id="paint20_linear_15600_22372" x1="78.1605" y1="270.92" x2="82.2605" y2="279.45" gradientUnits="userSpaceOnUse">
<stop stop-color="#070C14"/>
<stop offset="0.15" stop-color="#070E17"/>
<stop offset="0.29" stop-color="#091723"/>
<stop offset="0.43" stop-color="#0D2636"/>
<stop offset="0.56" stop-color="#123B51"/>
<stop offset="0.69" stop-color="#185573"/>
<stop offset="0.83" stop-color="#20769D"/>
<stop offset="0.96" stop-color="#299CCF"/>
<stop offset="1" stop-color="#2DABE2"/>
</linearGradient>
<linearGradient id="paint21_linear_15600_22372" x1="332.33" y1="324.94" x2="336.62" y2="333.53" gradientUnits="userSpaceOnUse">
<stop offset="0.43" stop-color="#0D2636"/>
<stop offset="0.83" stop-color="#64719B"/>
<stop offset="0.96" stop-color="#6A7085"/>
<stop offset="1" stop-color="#9197A7"/>
</linearGradient>
<linearGradient id="paint22_linear_15600_22372" x1="220.721" y1="396.864" x2="322.918" y2="385.112" gradientUnits="userSpaceOnUse">
<stop stop-color="#303C55"/>
<stop offset="0.486915" stop-color="#20293C"/>
<stop offset="1" stop-color="#101622"/>
</linearGradient>
<linearGradient id="paint23_linear_15600_22372" x1="98.6228" y1="203.602" x2="287.915" y2="181.834" gradientUnits="userSpaceOnUse">
<stop stop-color="#102C3D"/>
<stop offset="0.16" stop-color="#102E40"/>
<stop offset="0.32" stop-color="#12374C"/>
<stop offset="0.47" stop-color="#16465F"/>
<stop offset="0.62" stop-color="#1A5B7A"/>
<stop offset="0.77" stop-color="#20759C"/>
<stop offset="0.92" stop-color="#2895C6"/>
<stop offset="1" stop-color="#2DABE2"/>
</linearGradient>
<linearGradient id="paint24_linear_15600_22372" x1="98.6419" y1="203.614" x2="287.917" y2="181.848" gradientUnits="userSpaceOnUse">
<stop stop-color="#303C55"/>
<stop offset="0.486915" stop-color="#20293C"/>
<stop offset="1" stop-color="#101622"/>
</linearGradient>
<linearGradient id="paint25_linear_15600_22372" x1="192.469" y1="125.318" x2="228.004" y2="122.221" gradientUnits="userSpaceOnUse">
<stop stop-color="#070C14"/>
<stop offset="0.15" stop-color="#070E17"/>
<stop offset="0.29" stop-color="#091723"/>
<stop offset="0.43" stop-color="#0D2636"/>
<stop offset="0.56" stop-color="#123B51"/>
<stop offset="0.69" stop-color="#185573"/>
<stop offset="0.83" stop-color="#20769D"/>
<stop offset="0.96" stop-color="#299CCF"/>
<stop offset="1" stop-color="#2DABE2"/>
</linearGradient>
<linearGradient id="paint26_linear_15600_22372" x1="263.629" y1="108.912" x2="266.726" y2="144.457" gradientUnits="userSpaceOnUse">
<stop stop-color="#070C14"/>
<stop offset="0.15" stop-color="#070E17"/>
<stop offset="0.29" stop-color="#091723"/>
<stop offset="0.43" stop-color="#0D2636"/>
<stop offset="0.56" stop-color="#123B51"/>
<stop offset="0.69" stop-color="#185573"/>
<stop offset="0.83" stop-color="#20769D"/>
<stop offset="0.96" stop-color="#299CCF"/>
<stop offset="1" stop-color="#2DABE2"/>
</linearGradient>
<clipPath id="clip0_15600_22372">
<rect width="567" height="381" fill="white"/>
</clipPath>
</defs>
</svg>
